<svg width="134" height="22" viewBox="0 0 134 22" fill="none" xmlns="http://www.w3.org/2000/svg">
<g clip-path="url(#clip0_4131_66423)">
<path d="M6.08575 0V6.42047H10.6196V8.97648H6.08575V16.6445C6.08575 18.2877 6.96818 19.2005 8.45919 19.2005H10.6196V21.7566H8.21576C5.11203 21.7566 3.13416 19.87 3.13416 16.7358V8.97648H0V6.42047H3.13416V0H6.08575Z" fill="#222222"/>
<path d="M26.2295 16.7665C25.6818 19.931 22.9128 22.0002 19.1396 22.0002C14.3928 22.0002 11.4412 18.2575 11.4412 13.9974C11.4412 9.70698 14.1189 6.17725 18.8354 6.17725C23.5822 6.17725 26.1078 9.55484 26.1078 13.4497C26.1078 13.8453 26.0774 14.3322 26.047 14.606H14.3319C14.5753 17.4967 16.4619 19.4746 19.1396 19.4746C21.3914 19.4746 22.8519 18.5009 23.2779 16.7665H26.2295ZM14.4232 12.4456H23.1258C22.9432 10.1026 21.3609 8.55069 18.8354 8.55069C16.4315 8.55069 14.8796 9.88955 14.4232 12.4456Z" fill="#222222"/>
<path d="M41.1398 11.8674V21.7568H38.1882V19.2616C37.4579 20.9048 35.5104 22.0002 33.1979 22.0002C30.0637 22.0002 27.9945 20.1136 27.9945 17.375C27.9945 14.4234 30.3376 12.5977 33.9586 12.5977H37.1536C37.8535 12.5977 38.1882 12.2326 38.1882 11.6849C38.1882 9.8287 36.8493 8.55069 34.4759 8.55069C32.3459 8.55069 30.794 9.88955 30.7027 11.4414H27.9641C28.2075 8.42897 30.9461 6.17725 34.5671 6.17725C38.5229 6.17725 41.1398 8.4594 41.1398 11.8674ZM38.1882 15.032V14.6669H34.2324C32.2241 14.6669 30.9157 15.7014 30.9157 17.3142C30.9157 18.7139 32.072 19.6572 33.776 19.6572C36.5754 19.6572 38.1882 17.8619 38.1882 15.032Z" fill="#222222"/>
<path d="M43.2087 14.0887C43.2087 9.85913 45.9778 6.17725 50.8159 6.17725C54.4065 6.17725 57.5103 8.30726 57.9363 11.7761H54.9847C54.7108 10.0417 52.9459 8.76369 50.8768 8.76369C47.8035 8.76369 46.2836 11.1371 46.2836 14.0887C46.2836 17.0403 47.8354 19.4138 50.8768 19.4138C52.9764 19.4138 54.5282 18.3183 55.0151 16.5839H57.9363C57.4494 19.8093 54.7108 22.0002 50.8159 22.0002C45.9778 22.0002 43.2087 18.3183 43.2087 14.0887Z" fill="#222222"/>
<path d="M59.8215 0H62.7731V9.12863C63.5962 7.21162 65.4219 6.17704 67.7041 6.17704C71.173 6.17704 73.4247 8.6722 73.4247 12.3236V21.7566H70.4731V12.9018C70.4731 10.4675 69.043 8.82434 66.8825 8.82434C64.4787 8.82434 62.7746 10.7718 62.7746 13.4495V21.7566H59.8231L59.8215 0Z" fill="#222222"/>
<path d="M94.329 11.8674V21.7568H91.3774V19.2616C90.6471 20.9048 88.6996 22.0002 86.3871 22.0002C83.2529 22.0002 81.1837 20.1136 81.1837 17.375C81.1837 14.4234 83.5268 12.5977 87.1478 12.5977H90.3428C91.0427 12.5977 91.3774 12.2326 91.3774 11.6849C91.3774 9.8287 90.0385 8.55069 87.6651 8.55069C85.5351 8.55069 83.9832 9.88955 83.8919 11.4414H81.1533C81.3968 8.42897 84.1353 6.17725 87.7563 6.17725C91.7106 6.17725 94.329 8.4594 94.329 11.8674ZM91.3774 15.032V14.6669H87.4216C85.4133 14.6669 84.1049 15.7014 84.1049 17.3142C84.1049 18.7139 85.2612 19.6572 86.9652 19.6572C89.7646 19.6572 91.3759 17.8619 91.3759 15.032H91.3774Z" fill="#222222"/>
<path d="M99.9264 19.4744V21.7566H96.9749V0H99.9264V8.6722C100.809 7.18119 102.665 6.17704 104.765 6.17704C109.451 6.17704 112.098 9.5242 112.098 14.0885C112.098 18.6528 109.451 22 104.734 22C102.697 22 100.809 20.9958 99.9264 19.4744ZM109.116 14.0885C109.116 10.8935 107.229 8.76348 104.399 8.76348C101.539 8.76348 99.683 10.8935 99.683 14.0885C99.683 17.2835 101.539 19.4135 104.399 19.4135C107.229 19.4135 109.116 17.2835 109.116 14.0885Z" fill="#222222"/>
<path d="M114.108 0H117.059V21.7566H114.108V0Z" fill="#222222"/>
<path d="M133.944 16.7665C133.397 19.931 130.628 22.0002 126.856 22.0002C122.109 22.0002 119.157 18.2575 119.157 13.9974C119.157 9.70698 121.835 6.17725 126.552 6.17725C131.297 6.17725 133.823 9.55484 133.823 13.4497C133.823 13.8453 133.792 14.3322 133.762 14.606H122.047C122.29 17.4967 124.177 19.4746 126.854 19.4746C129.105 19.4746 130.565 18.5009 130.991 16.7665H133.944ZM122.139 12.4456H130.844C130.663 10.1026 129.079 8.55069 126.555 8.55069C124.149 8.55069 122.596 9.88955 122.139 12.4456Z" fill="#222222"/>
<path d="M78.9002 8.13184V11.4486H75.6443V8.13184H78.9002ZM78.9002 18.4776V21.7563H75.6443V18.47L78.9002 18.4776Z" fill="#222222"/>
</g>
<defs>
<clipPath id="clip0_4131_66423">
<rect width="134" height="22" fill="white"/>
</clipPath>
</defs>
</svg>
