<svg width="64" height="65" viewBox="0 0 64 65" fill="none" xmlns="http://www.w3.org/2000/svg">
<circle cx="32" cy="32.9565" r="32" fill="black"/>
<path d="M16.08 31.1747H18.432V28.7987H16.08V31.1747ZM16.08 40.2227H18.432V37.8467H16.08V40.2227ZM21.0349 40.2227H22.9549V33.8147C22.9549 31.4147 24.7309 29.7347 26.6029 29.7347C28.3549 29.7347 29.4829 30.7667 29.4829 32.6387V40.2227H31.4269V32.1587C31.4269 29.5427 29.8189 27.9827 27.2509 27.9827C25.4269 27.9827 23.8429 28.9427 22.9549 30.5027V23.4227H21.0349V40.2227ZM43.6024 45.1187H45.5224V28.3187H43.6024V30.3587C42.9544 28.9427 41.3944 27.9827 39.4264 27.9827C36.2584 27.9827 33.7144 30.5747 33.7144 34.2707C33.7144 37.9187 36.2104 40.5587 39.4264 40.5587C41.2504 40.5587 42.7384 39.7907 43.6024 38.2547V45.1187ZM39.7144 38.8067C37.3384 38.8067 35.6824 36.9107 35.6824 34.2707C35.6824 31.6307 37.3384 29.7347 39.7144 29.7347C42.0904 29.7347 43.7464 31.6787 43.7464 34.2707C43.7464 36.8627 42.0904 38.8067 39.7144 38.8067Z" fill="white"/>
</svg>
