<svg width="64" height="65" viewBox="0 0 64 65" fill="none" xmlns="http://www.w3.org/2000/svg">
<circle cx="32" cy="32.9565" r="32" fill="#1F574D"/>
<path d="M24.08 31.1747H26.432V28.7987H24.08V31.1747ZM24.08 40.2227H26.432V37.8467H24.08V40.2227ZM35.1309 40.5587C38.3949 40.5587 40.8429 37.9667 40.8429 34.2707C40.8429 30.5747 38.4909 27.9827 35.3469 27.9827C33.4269 27.9827 31.8429 28.9187 30.9549 30.3107V23.4227H29.0349V40.2227H30.9549V38.2067C31.6269 39.4307 33.1869 40.5587 35.1309 40.5587ZM34.8429 38.8067C32.4669 38.8067 30.8109 36.8867 30.8109 34.2707C30.8109 31.6547 32.4909 29.7347 34.8429 29.7347C37.1709 29.7347 38.8749 31.6067 38.8749 34.2707C38.8749 36.9347 37.2189 38.8067 34.8429 38.8067Z" fill="white"/>
</svg>
