<svg width="64" height="65" viewBox="0 0 64 65" fill="none" xmlns="http://www.w3.org/2000/svg">
<circle cx="32" cy="32.9565" r="32" fill="#21CD9C"/>
<path d="M24.808 40.5587C25.432 40.5587 25.936 40.4627 26.344 40.3187L26.176 38.7107C25.936 38.7827 25.576 38.8547 25.24 38.8547C24.16 38.8547 23.608 38.2787 23.608 37.0307V29.8307H26.44V28.3187H23.608V25.1027H21.664V28.3187H19.648V29.8307H21.664V37.1747C21.664 39.6227 23.104 40.5587 24.808 40.5587ZM28.1134 31.1747H30.4654V28.7987H28.1134V31.1747ZM28.1134 40.2227H30.4654V37.8467H28.1134V40.2227ZM37.3403 40.5587C39.0683 40.5587 40.5563 39.5987 41.3243 38.1347V40.2227H43.2683V28.3187H41.3243V34.6547C41.3243 37.1267 39.7643 38.8067 37.8443 38.8067C36.1163 38.8067 34.9883 37.7747 34.9883 35.8547V28.3187H33.0683V36.0947C33.0683 39.2387 35.0603 40.5587 37.3403 40.5587Z" fill="black"/>
</svg>
